<?xml version="1.0" encoding="UTF-8"?>
<svg xmlns="http://www.w3.org/2000/svg" version="1.1" viewBox="0 0 1000 785.3">
  <defs>
    <style>
      .cls-1 {
        fill: #fff;
      }

      .cls-2 {
        fill: #0c7c59;
      }

      .cls-3 {
        fill: #1b664d;
      }

      .cls-4 {
        fill: #0f975a;
      }
    </style>
  </defs>
  <!-- Generator: Adobe Illustrator 28.6.0, SVG Export Plug-In . SVG Version: 1.2.0 Build 709)  -->
  <g>
    <g id="Layer_1">
      <g>
        <g>
          <path class="cls-3" d="M998.5,636.6c-3.3,9.6-11.6,16.5-21.6,18.1-113.9,18-228.6,27.1-343.3,27.1s-229.4-9.1-343.3-27.1c1.4.2,2.9.3,4.3.3s4-.2,6-.7l71.5-16,84.7-18.9,251.4-56.1c.8-.2,1.6-.4,2.4-.7.4,0,.8-.2,1.2-.4.8-.3,1.5-.6,2.3-.9.3-.2.7-.3,1-.5.7-.3,1.3-.7,2-1.2,3.7-2.4,6.8-5.5,9-9.2.3-.4.5-.9.7-1.3.2-.4.4-.9.6-1.3,1-2.2,1.8-4.6,2.1-7l43.8-276.5,4.4-28,4.4-27.9c40.7-3.5,81.4-8.5,121.9-14.9,9.5-1.5,19.2,2.1,25.4,9.6,6.2,7.4,8,17.5,4.8,26.6-24.2,69.5-52.6,138.9-84.2,206.7,44.3,59.3,92.3,117.2,143,172.5,6.8,7.5,9,18.1,5.7,27.6h-.2Z"/>
          <path class="cls-2" d="M708.2,563.3c-41.6,9.3-209.8,46.8-251.4,56.1-4.4,1-78.1,17.5-156.2,34.9-2,.4-4.1.7-6,.7s-2.9,0-4.3-.3c-1.6-.3-3.2-.7-4.8-1.2-.8-.3-1.4-.5-2.1-.9-.5-.2-1.1-.5-1.6-.8-.8-.4-1.6-.9-2.4-1.4-.5-.3-.9-.6-1.3-.9-.4-.2-.7-.5-1-.8-.6-.5-1.2-1-1.8-1.6s-1-1-1.5-1.6c-1.1-1.3-2.1-2.7-2.9-4.2-.4-.6-.7-1.3-1-1.9-.3-.6-.5-1.3-.8-1.9-.4-1-.8-2-1-3.1-.2-.4-.2-.8-.3-1.3-.1-.7-.2-1.4-.3-2.1-.4-2.8-.3-5.6.2-8.3l11.7-73.9c9.4-.8,18.8-1.5,28.2-2.3,9.3-.6,18.7-1.2,28-1.6,66.5-3.6,133.1-3.3,199.6.9,54.4,3.4,108.8,9.3,162.9,17.9,1.4.2,2.9.3,4.3.3,2,0,4.1-.2,6-.7h-.2Z"/>
        </g>
        <g>
          <path class="cls-4" d="M267.6,633c.1.4.2.9.3,1.3-.1-.3-.2-.5-.2-.8s0-.3-.1-.5h0Z"/>
          <path class="cls-4" d="M793.7,134l-11.8,74.5-4.4,27.9-4.4,28-43.8,276.5c-.4,2.4-1.1,4.8-2.1,7-.2.4-.4.9-.6,1.3-.2.4-.4.9-.7,1.3-2.2,3.7-5.3,6.9-9,9.2-.7.4-1.3.8-2,1.2-.3.2-.7.3-1,.5-.7.3-1.5.7-2.3.9-.4.2-.8.3-1.2.4-.8.3-1.5.5-2.4.7-1.9.4-4,.7-6,.7s-2.9,0-4.3-.3c-54.1-8.6-108.5-14.6-162.9-17.9-66.5-4.2-133.1-4.5-199.6-.9-9.3.4-18.7,1-28,1.6-9.4.7-18.8,1.4-28.2,2.3-31.6,2.7-63.2,6.3-94.7,10.8l30.7,194c2.4,14.9-7.9,29.1-22.8,31.4-1.5.2-2.9.3-4.3.3-13.3,0-24.9-9.7-27.1-23.2l-35-221.3-61.5-388.1C28,146.8,0,115.1,0,76.9S34.5,0,76.9,0s76.9,34.5,76.9,76.9-.6,10.9-1.7,16c205.8-26.1,413.6-22.8,618.8,9.7,7.2,1.2,13.7,5.1,18,11s6,13.2,4.9,20.4h-.1Z"/>
        </g>
        <g>
          <path class="cls-1" d="M217.4,211.7c6.8-.9,10.5,1.7,11.3,7.6,5.7,46.1,11.4,92.2,17.1,138.3.7,5.6,4.5,8.4,10.3,7.7,22.9-2.7,45.9-4.9,68.9-6.6,6.2-.5,9.5,2.3,9.9,8.3.7,11.1,1.5,22.2,2.2,33.3.4,5.9-2.4,9.1-8.4,9.5-39.4,2.9-78.7,7.3-117.8,13.3-5.6.9-9.4-1.8-10.3-7.4-9.9-62.7-19.9-125.5-29.8-188.2-.9-5.9,2.3-9.4,8.7-10.4,12.6-1.9,25.3-3.7,37.9-5.3h0Z"/>
          <path class="cls-1" d="M345.2,267c-1.1-19.2.2-73.6,81.7-75,72.2,0,82.2,42.8,82.8,65.8,0,5.4-3,8.5-8.9,9.5-12.4,2-24.8,4.2-37.1,6.5-6.5,1.1-10.1-1.6-10.7-7.9-1.2-14.3-6.8-22.7-25.7-22.6-24.6.2-25.9,14.4-25.4,37.3.3,14.3.6,28.6,1,42.9.5,23,2.4,36.8,25.2,36.5,22.8,0,24.5-13.9,24.6-28.6h-18.2c-6,0-9.5-3.2-9.5-8.9s-.1-15.9-.2-23.8c0-6,3.5-9,9.6-9,21.5,0,43,.3,64.5,1.1,6.5.2,9.6,3.4,9.3,9.3-.6,13.4-1.1,26.8-1.7,40.2-.9,20-7.7,71.1-78,71-70.3,1.1-77.9-49.8-79-69.8-1.4-24.8-2.8-49.5-4.2-74.3v-.2Z"/>
          <path class="cls-1" d="M698.6,217c6.8,1,9.7,4.5,8.7,10.4-1.7,11-3.5,22-5.2,32.9-.9,5.6-4.7,8.3-11.2,7.3-27.5-4.2-55.2-7.7-82.9-10.5-6.3-.6-10.2,2-10.7,7.9-.3,3.2-.6,6.3-.9,9.5-.5,5.6,2.7,9.2,8.9,9.8,17.8,1.8,35.6,3.9,53.4,6.3,6.5.9,9.3,4.3,8.5,10.2-1.5,11-3.1,22-4.6,33-.8,5.6-4.4,8.4-10.6,7.6-17.2-2.3-34.5-4.4-51.7-6.1-6-.6-9.7,2-10.3,8-1.9,20.2-3.9,40.3-5.8,60.5-.5,5.6-3.8,8.6-9.8,8.1-11.8-1.1-23.5-2-35.3-2.7-5.7-.4-8.8-3.8-8.4-9.5,3.8-63.4,7.6-126.8,11.4-190.2.4-5.9,4.3-8.7,10.7-8.3,48.8,3.2,97.5,8.5,145.9,15.9h-.1Z"/>
        </g>
      </g>
    </g>
  </g>
</svg>